<svg xmlns="http://www.w3.org/2000/svg" xmlns:xlink="http://www.w3.org/1999/xlink" preserveAspectRatio="xMidYMid meet" version="1.0" viewBox="-0.9 126.0 416.8 70.5" zoomAndPan="magnify" style="fill: rgb(232, 145, 5);" original_string_length="9171"><g id="__id0_srqiocw9g"><path d="m327.3 159.96c-0.069122 7.32e-4 -0.13971 0.004501-0.2096 0.009735-2.7909 0.49847-4.3257 3.5516-4.5478 6.2441-0.32507 2.4437 0.71558 5.5837 3.3086 6.1309 0.3765 0.074234 0.76703 0.040482 1.1347-0.062958 3.1218-1.0832 4.5191-4.9091 4.0683-8.0776-0.13165-2.0471-1.6223-4.2727-3.7543-4.2442zm-11.832 0.1312c-1.7354 0.043488-3.0872 1.865-3.3622 3.5763-0.57974 3.3911 0.91138 7.6054 4.3263 8.6773 0.31982 0.07196 0.65073 0.079453 0.97385 0.027725 2.3081-0.39803 3.2859-3.0748 3.1893-5.2366-0.069489-2.8507-1.501-6.1474-4.3628-6.9494-0.26163-0.07196-0.51657-0.10194-0.7645-0.095215zm19.394 9.6315c-3.002 0.1859-5.0596 3.2854-5.3531 6.1789-0.39789 2.0868 0.67804 4.8791 2.9799 5.0455 3.2094-0.041229 5.3987-3.589 5.4899-6.6421 0.20297-2.0194-0.94647-4.4706-3.1167-4.5823zm-26.276 0.6881c-1.2772-0.011993-2.5334 0.77959-2.9507 2.1228-1.1135 3.5935 1.1225 8.1443 4.801 8.8991 1.5353 0.27212 2.8842-0.94746 3.2649-2.4152 0.80667-3.1393-0.85022-6.7838-3.6544-8.2088-0.45682-0.26537-0.96103-0.39356-1.4608-0.39804zm13.458 6.4427c-2.5036 0.005997-5.0467 1.32-6.6681 3.2772-1.7512 2.281-3.1857 4.9353-3.7469 7.8137-0.68179 2.0719 0.86356 4.4563 3.0043 4.4706 2.5756 0.074219 4.789-1.7555 7.3501-1.8912 2.1727-0.34331 4.1186 0.82605 6.0718 1.5914 1.6635 0.73612 3.9617 0.45425 4.8111-1.398 0.66779-1.8875-0.31549-3.9001-1.1296-5.5762-1.6613-2.721-3.441-5.5807-6.165-7.28-1.0914-0.70013-2.3048-1.0097-3.5278-1.0074z" transform="rotate(96.613 321.36 176.4)" style="fill: inherit;"/></g><g id="__id1_srqiocw9g"><path d="m97.804 129.96c-0.069122 7.63e-4 -0.13971 0.004517-0.2096 0.00975-2.7908 0.49849-4.3257 3.5516-4.5478 6.2441-0.32507 2.4437 0.71558 5.5837 3.3087 6.1309 0.37649 0.074234 0.76703 0.040482 1.1347-0.062958 3.1218-1.0832 4.5191-4.9091 4.0683-8.0776-0.13165-2.0471-1.6223-4.2727-3.7543-4.2442zm-11.832 0.1312c-1.7354 0.043488-3.0872 1.865-3.3622 3.5763-0.57974 3.3911 0.91138 7.6054 4.3263 8.6773 0.31982 0.07196 0.65072 0.079453 0.97384 0.027725 2.3081-0.39803 3.2859-3.0748 3.1893-5.2366-0.069496-2.8507-1.501-6.1474-4.3628-6.9495-0.26163-0.07193-0.51657-0.10193-0.7645-0.0952zm19.394 9.6315c-3.002 0.1859-5.0596 3.2854-5.353 6.1789-0.3979 2.0868 0.67804 4.8791 2.9799 5.0455 3.2094-0.041229 5.3987-3.589 5.4899-6.6421 0.20298-2.0194-0.94647-4.4706-3.1167-4.5823zm-26.277 0.6881c-1.2772-0.011993-2.5334 0.77959-2.9507 2.1228-1.1135 3.5935 1.1225 8.1443 4.801 8.8991 1.5353 0.27212 2.8842-0.94746 3.2649-2.4152 0.80667-3.1393-0.85021-6.7838-3.6544-8.2088-0.45682-0.26537-0.96103-0.39356-1.4608-0.39804zm13.458 6.4427c-2.5036 0.005997-5.0467 1.32-6.6681 3.2772-1.7512 2.281-3.1857 4.9353-3.7469 7.8137-0.68179 2.0719 0.86356 4.4563 3.0043 4.4706 2.5756 0.074219 4.789-1.7555 7.3501-1.8912 2.1727-0.34331 4.1186 0.82605 6.0718 1.5914 1.6635 0.73612 3.9617 0.45425 4.8111-1.398 0.66779-1.8875-0.31549-3.9001-1.1296-5.5762-1.6613-2.721-3.441-5.5807-6.1649-7.28-1.0914-0.70013-2.3048-1.0097-3.5278-1.0074h1.5e-5z" transform="rotate(83.83 91.855 146.4)" style="fill: inherit;"/></g><g id="__id2_srqiocw9g"><path d="m23.804 160.96c-0.06912 7.63e-4 -0.13971 0.004517-0.2096 0.00975-2.7909 0.49849-4.3257 3.5516-4.5478 6.2441-0.32507 2.4437 0.71558 5.5837 3.3087 6.1309 0.37649 0.074234 0.76703 0.040482 1.1347-0.062958 3.1218-1.0832 4.5191-4.9091 4.0683-8.0776-0.13165-2.0471-1.6223-4.2727-3.7543-4.2442zm-11.832 0.1312c-1.7354 0.043488-3.0872 1.865-3.3622 3.5763-0.57974 3.3911 0.91138 7.6054 4.3263 8.6773 0.31982 0.07196 0.65072 0.079453 0.97384 0.027725 2.3081-0.39803 3.2859-3.0748 3.1893-5.2366-0.06949-2.8507-1.501-6.1474-4.3628-6.9495-0.26163-0.07193-0.51657-0.10193-0.7645-0.0952zm19.394 9.6315c-3.002 0.1859-5.0596 3.2854-5.353 6.1789-0.39789 2.0868 0.67804 4.8791 2.9799 5.0455 3.2094-0.041229 5.3987-3.589 5.4899-6.6421 0.20298-2.0194-0.94647-4.4706-3.1167-4.5823zm-26.277 0.6881c-1.2772-0.011993-2.5334 0.77959-2.9507 2.1228-1.1135 3.5935 1.1225 8.1443 4.801 8.8991 1.5353 0.27212 2.8842-0.94746 3.2649-2.4152 0.80667-3.1393-0.85022-6.7838-3.6544-8.2088-0.45682-0.26537-0.96103-0.39356-1.4608-0.39804zm13.458 6.4427c-2.5036 0.005997-5.0467 1.32-6.6681 3.2772-1.7512 2.281-3.1857 4.9353-3.7469 7.8137-0.6818 2.0719 0.86355 4.4563 3.0043 4.4706 2.5756 0.074219 4.789-1.7555 7.3501-1.8912 2.1727-0.34331 4.1186 0.82605 6.0718 1.5914 1.6635 0.73612 3.9617 0.45425 4.8111-1.398 0.66779-1.8875-0.31549-3.9001-1.1296-5.5762-1.6613-2.721-3.441-5.5807-6.1649-7.28-1.0914-0.70013-2.3048-1.0097-3.5278-1.0074h1e-5z" transform="rotate(98.326 17.855 177.4)" style="fill: inherit;"/></g><g id="__id3_srqiocw9g"><path d="m247.8 128.96c-0.069122 7.63e-4 -0.13971 0.004517-0.2096 0.00975-2.7909 0.49849-4.3257 3.5516-4.5478 6.2441-0.32507 2.4437 0.71558 5.5837 3.3086 6.1309 0.3765 0.074234 0.76703 0.040482 1.1347-0.062958 3.1218-1.0832 4.5191-4.9091 4.0683-8.0776-0.13165-2.0471-1.6223-4.2727-3.7543-4.2442zm-11.832 0.1312c-1.7354 0.043488-3.0872 1.865-3.3622 3.5763-0.57974 3.3911 0.91138 7.6054 4.3263 8.6773 0.31982 0.07196 0.65073 0.079453 0.97385 0.027725 2.3081-0.39803 3.2859-3.0748 3.1893-5.2366-0.069489-2.8507-1.501-6.1474-4.3628-6.9495-0.26163-0.07193-0.51657-0.10193-0.7645-0.0952zm19.394 9.6315c-3.0019 0.1859-5.0596 3.2854-5.353 6.1789-0.39789 2.0868 0.67804 4.8791 2.9799 5.0455 3.2094-0.041229 5.3987-3.589 5.4898-6.6421 0.203-2.0194-0.94647-4.4706-3.1167-4.5823zm-26.276 0.6881c-1.2772-0.011993-2.5334 0.77959-2.9507 2.1228-1.1135 3.5935 1.1225 8.1443 4.801 8.8991 1.5353 0.27212 2.8842-0.94746 3.2649-2.4152 0.80667-3.1393-0.85022-6.7838-3.6544-8.2088-0.45682-0.26537-0.96103-0.39356-1.4608-0.39804zm13.458 6.4427c-2.5036 0.005997-5.0467 1.32-6.6681 3.2772-1.7512 2.281-3.1857 4.9353-3.7469 7.8137-0.68179 2.0719 0.86356 4.4563 3.0043 4.4706 2.5756 0.074219 4.789-1.7555 7.3501-1.8912 2.1727-0.34331 4.1186 0.82605 6.0718 1.5914 1.6635 0.73612 3.9617 0.45425 4.8111-1.398 0.66779-1.8875-0.31549-3.9001-1.1296-5.5762-1.6613-2.721-3.441-5.5807-6.165-7.28-1.0914-0.70013-2.3048-1.0097-3.5278-1.0074z" transform="rotate(80.311 241.86 145.4)" style="fill: inherit;"/></g><g id="__id4_srqiocw9g"><path d="m169.8 154.96c-0.069122 7.63e-4 -0.13968 0.004517-0.20956 0.00975-2.7909 0.49849-4.3257 3.5516-4.5478 6.2441-0.32507 2.4437 0.71558 5.5837 3.3086 6.1309 0.3765 0.074234 0.76704 0.040482 1.1347-0.062958 3.1218-1.0832 4.5192-4.9091 4.0683-8.0776-0.13162-2.0471-1.6223-4.2727-3.7543-4.2442zm-11.832 0.1312c-1.7354 0.043488-3.0872 1.865-3.3622 3.5763-0.57974 3.3911 0.91138 7.6054 4.3263 8.6773 0.31982 0.07196 0.65073 0.079453 0.97385 0.027725 2.3081-0.39803 3.2859-3.0748 3.1893-5.2366-0.069489-2.8507-1.501-6.1474-4.3628-6.9495-0.26163-0.07193-0.51657-0.10193-0.7645-0.0952zm19.394 9.6315c-3.002 0.1859-5.0596 3.2854-5.353 6.1789-0.39789 2.0868 0.67804 4.8791 2.9799 5.0455 3.2094-0.041229 5.3987-3.589 5.4899-6.6421 0.203-2.0194-0.94647-4.4706-3.1167-4.5823zm-26.276 0.6881c-1.2772-0.011993-2.5334 0.77959-2.9507 2.1228-1.1135 3.5935 1.1225 8.1443 4.801 8.8991 1.5353 0.27212 2.8842-0.94746 3.2649-2.4152 0.80667-3.1393-0.85022-6.7838-3.6544-8.2088-0.45682-0.26537-0.96103-0.39356-1.4608-0.39804zm13.458 6.4427c-2.5036 0.005997-5.0467 1.32-6.6681 3.2772-1.7512 2.281-3.1857 4.9353-3.7469 7.8137-0.68179 2.0719 0.86356 4.4563 3.0043 4.4706 2.5756 0.074219 4.789-1.7555 7.3501-1.8912 2.1727-0.34331 4.1186 0.82605 6.0718 1.5914 1.6635 0.73612 3.9617 0.45425 4.811-1.398 0.66779-1.8875-0.31546-3.9001-1.1296-5.5762-1.6613-2.721-3.441-5.5807-6.165-7.28-1.0914-0.70013-2.3048-1.0097-3.5278-1.0074z" transform="rotate(96.632 163.86 171.4)" style="fill: inherit;"/></g><g id="__id5_srqiocw9g"><path d="m403.8 127.96c-0.069122 7.71e-4 -0.13968 0.004517-0.20956 0.009766-2.7909 0.49847-4.3257 3.5516-4.5478 6.2441-0.3251 2.4437 0.71558 5.5837 3.3086 6.1309 0.37646 0.074249 0.76703 0.040497 1.1347-0.062958 3.1218-1.0832 4.5192-4.9091 4.0683-8.0776-0.13162-2.0471-1.6223-4.2727-3.7543-4.2442zm-11.832 0.1312c-1.7354 0.043518-3.0872 1.865-3.3622 3.5763-0.57974 3.3911 0.91135 7.6054 4.3263 8.6772 0.31979 0.071991 0.6507 0.079468 0.97385 0.02774 2.3081-0.39801 3.2859-3.0748 3.1893-5.2366-0.069519-2.8507-1.501-6.1474-4.3628-6.9495-0.2616-0.07193-0.51654-0.10193-0.76446-0.095215zm19.394 9.6315c-3.002 0.18591-5.0596 3.2855-5.353 6.1789-0.39789 2.0868 0.67804 4.8791 2.9799 5.0455 3.2094-0.041199 5.3987-3.589 5.4899-6.6421 0.203-2.0194-0.94647-4.4706-3.1167-4.5823zm-26.276 0.6881c-1.2772-0.011993-2.5334 0.7796-2.9507 2.1228-1.1135 3.5936 1.1225 8.1443 4.801 8.8992 1.5352 0.27212 2.8842-0.94748 3.2649-2.4152 0.80664-3.1393-0.85022-6.7838-3.6544-8.2088-0.45679-0.26535-0.961-0.39356-1.4608-0.39804zm13.458 6.4427c-2.5036 0.006012-5.0468 1.32-6.6681 3.2772-1.7512 2.281-3.1856 4.9353-3.7469 7.8138-0.68179 2.0719 0.86356 4.4563 3.0043 4.4706 2.5756 0.074219 4.7891-1.7555 7.3502-1.8912 2.1727-0.34329 4.1185 0.82608 6.0718 1.5914 1.6635 0.73614 3.9617 0.45428 4.811-1.398 0.66779-1.8875-0.31546-3.9001-1.1296-5.5762-1.6613-2.721-3.441-5.5808-6.165-7.2801-1.0914-0.70013-2.3049-1.0097-3.5278-1.0074z" transform="rotate(84.144 397.86 144.4)" style="fill: inherit;"/></g></svg>